<svg width="24" height="24" viewBox="0 0 24 24" fill="none" xmlns="http://www.w3.org/2000/svg">
<path d="M20.001 9.20001H20.201V8.99996L20.2 4.99996L20.1999 4.80001H20H16.869H16.4953L16.7026 5.11096L19.3696 9.11096L19.429 9.20001H19.536H20.001ZM9.36961 9.11096L9.42898 9.20001H9.53601H12.132H12.5057L12.2984 8.88906L9.63141 4.88906L9.57204 4.80001H9.46501H6.86901H6.49528L6.70261 5.11096L9.36961 9.11096ZM14.3696 9.11096L14.429 9.20001H14.536H17.132H17.5057L17.2984 8.88906L14.6314 4.88906L14.572 4.80001H14.465H11.869H11.4953L11.7026 5.11096L14.3696 9.11096ZM4.00001 4.80001H3.80001V5.00001V9.00001V9.20001H4.00001H7.13201H7.50574L7.29841 8.88906L4.63141 4.88906L4.57204 4.80001H4.46501H4.00001ZM3.80001 19V19.2H4.00001H20.002H20.2021L20.202 19L20.2 10.9999L20.1999 10.8H20H4.00001H3.80001V11V19ZM4.00001 3.20001H20C20.9925 3.20001 21.8 4.00747 21.8 5.00001V19C21.8 19.9925 20.9925 20.8 20 20.8H4.00001C3.00747 20.8 2.20001 19.9925 2.20001 19V5.00001C2.20001 4.00747 3.00747 3.20001 4.00001 3.20001Z" fill="white" stroke="white" stroke-width="0.4"/>
<path d="M10 18L15.5 15L10 12V18Z" fill="white"/>
</svg>
