<svg width="24" height="24" viewBox="0 0 24 24" fill="none" xmlns="http://www.w3.org/2000/svg">
<path d="M20.001 9.2H20.201L20.201 8.99995L20.2 4.99995L20.1999 4.8H20H16.869H16.4953L16.7026 5.11095L19.3696 9.11095L19.429 9.2H19.536H20.001ZM9.3696 9.11095L9.42897 9.2H9.536H12.132H12.5057L12.2984 8.88905L9.6314 4.88905L9.57203 4.8H9.465H6.869H6.49527L6.7026 5.11095L9.3696 9.11095ZM14.3696 9.11095L14.429 9.2H14.536H17.132H17.5057L17.2984 8.88905L14.6314 4.88905L14.572 4.8H14.465H11.869H11.4953L11.7026 5.11095L14.3696 9.11095ZM4 4.8H3.8V5V9V9.2H4H7.132H7.50573L7.2984 8.88905L4.6314 4.88905L4.57203 4.8H4.465H4ZM3.8 19V19.2H4H20.002H20.2021L20.202 19L20.2 10.9999L20.1999 10.8H20H4H3.8V11V19ZM4 3.2H20C20.9925 3.2 21.8 4.00746 21.8 5V19C21.8 19.9925 20.9925 20.8 20 20.8H4C3.00746 20.8 2.2 19.9925 2.2 19V5C2.2 4.00746 3.00746 3.2 4 3.2Z" fill="white" stroke="#4880FF" stroke-width="0.4"/>
<path d="M10 18L15.5 15L10 12V18Z" fill="white"/>
</svg>
