<svg width="28" height="28" viewBox="0 0 28 28" fill="none" xmlns="http://www.w3.org/2000/svg">
<path d="M9.33333 10.2667C9.33333 7.68934 11.4227 5.6 14 5.6C16.5773 5.6 18.6667 7.68934 18.6667 10.2667C18.6667 12.844 16.5773 14.9333 14 14.9333C11.4227 14.9333 9.33333 12.844 9.33333 10.2667Z" fill="white"/>
<path fill-rule="evenodd" clip-rule="evenodd" d="M14 0C6.26801 0 0 6.26801 0 14C0 21.732 6.26801 28 14 28C21.732 28 28 21.732 28 14C28 6.26801 21.732 0 14 0ZM1.86667 14C1.86667 7.29895 7.29895 1.86667 14 1.86667C20.7011 1.86667 26.1333 7.29895 26.1333 14C26.1333 17.4525 24.6913 20.5682 22.3767 22.7777C22.0949 19.4294 19.2878 16.8 15.8667 16.8H12.1333C8.71218 16.8 5.90511 19.4294 5.62327 22.7777C3.30868 20.5682 1.86667 17.4525 1.86667 14Z" fill="white"/>
</svg>
