<svg width="200" height="25" viewBox="0 0 200 25" fill="none" xmlns="http://www.w3.org/2000/svg">
<path d="M34.5428 13.4978C28.6112 13.4978 23.8026 18.3064 23.8026 24.238" stroke="black" stroke-width="1.74165"/>
<path d="M34.8331 18.4325C31.6268 18.4325 29.0276 21.0317 29.0276 24.238" stroke="black" stroke-width="1.74165"/>
<path d="M32.8011 22.2061H34.8331V24.238H32.8011V22.2061Z" fill="black"/>
<path d="M20.9724 12.027L15.0943 15.4207C14.9976 15.4766 14.8766 15.4068 14.8766 15.2951V8.50766C14.8766 8.39593 14.9975 8.3261 15.0943 8.38197L20.9724 11.7756C21.0692 11.8315 21.0691 11.9712 20.9724 12.027Z" stroke="black" stroke-width="1.45138"/>
<path d="M4.93469 2.17707H29.8984C31.5016 2.17707 32.8012 3.47668 32.8012 5.07983V8.56314C32.8012 8.72345 32.9311 8.85341 33.0914 8.85341H34.5428C34.7031 8.85341 34.8331 8.72345 34.8331 8.56314V5.07983C34.8331 2.35448 32.6238 0.145142 29.8984 0.145142H4.93469C2.20934 0.145142 0 2.35448 0 5.07983V19.0131C0 21.7384 2.20933 23.9478 4.93469 23.9478H18.8679C19.0282 23.9478 19.1582 23.8178 19.1582 23.6575V22.2061C19.1582 22.0458 19.0282 21.9158 18.8679 21.9158H4.93469C3.33154 21.9158 2.03193 20.6162 2.03193 19.0131V5.07983C2.03193 3.47668 3.33154 2.17707 4.93469 2.17707Z" fill="black"/>
<path d="M58.4431 7.92627C58.4431 8.818 58.2712 9.6122 57.9275 10.3088C57.5838 10.9962 57.1519 11.5721 56.6317 12.0366C56.1116 12.4917 55.5867 12.8215 55.0573 13.0258C55.5775 13.2116 56.0094 13.5321 56.3531 13.9872C56.706 14.4424 56.9894 14.9765 57.203 15.5895L58.039 17.9443C58.1876 18.3808 58.378 18.7756 58.6103 19.1286C58.8425 19.4816 59.1119 19.7742 59.4184 20.0064C59.1304 20.3779 58.7124 20.6891 58.1644 20.9399C57.6164 21.1907 57.0451 21.3161 56.4506 21.3161C55.6518 21.3161 55.0712 21.1025 54.709 20.6752C54.3467 20.2386 54.0169 19.593 53.7197 18.7385L52.7165 15.8264C52.5586 15.3434 52.3124 14.9347 51.978 14.6003C51.6436 14.2566 51.1049 14.0848 50.3618 14.0848H47.394V10.7547C47.7563 10.7361 48.2021 10.7176 48.7316 10.699C49.2703 10.6711 49.7766 10.6525 50.2503 10.6432C50.7333 10.6247 51.077 10.6154 51.2814 10.6154C51.9873 10.6154 52.5261 10.49 52.8976 10.2392C53.2785 9.9791 53.5386 9.64471 53.6779 9.236C53.8265 8.82729 53.9008 8.39071 53.9008 7.92627C53.9008 7.44325 53.8265 6.99739 53.6779 6.58868C53.5386 6.17997 53.2785 5.85487 52.8976 5.61336C52.5261 5.36256 51.9873 5.23716 51.2814 5.23716C51.0863 5.23716 50.8773 5.23716 50.6544 5.23716C50.4407 5.23716 50.2132 5.23716 49.9716 5.23716C49.7301 5.22787 49.4747 5.21858 49.2053 5.20929V21.0653C48.8338 21.1303 48.4483 21.1721 48.0489 21.1907C47.6494 21.2186 47.2965 21.2325 46.9899 21.2325C46.7206 21.2325 46.3769 21.2186 45.9589 21.1907C45.5409 21.1721 45.1507 21.1303 44.7885 21.0653V2.17185L44.9835 1.97678C46.1725 1.94891 47.315 1.92569 48.4111 1.90711C49.5165 1.87925 50.5986 1.86532 51.6576 1.86532C52.9487 1.86532 54.1052 2.07896 55.1269 2.50624C56.158 2.93353 56.9661 3.59304 57.5513 4.48476C58.1458 5.37649 58.4431 6.52366 58.4431 7.92627ZM61.6582 5.86415L61.8114 5.71089H65.9775V9.22206C65.9775 9.51931 65.9821 9.77011 65.9914 9.97446C66.0007 10.1788 66.0053 10.425 66.0053 10.7129V15.9379C66.0053 16.2816 66.0007 16.5649 65.9914 16.7878C65.9821 17.0107 65.9775 17.2894 65.9775 17.6238V21.121H64.2079C63.4184 21.121 62.796 20.8981 62.3409 20.4522C61.8857 19.9971 61.6582 19.3887 61.6582 18.627V5.86415ZM71.3139 11.6186C71.4068 11.8694 71.4672 12.1573 71.495 12.4824C71.5322 12.7983 71.5508 13.0676 71.5508 13.2906C71.5508 13.5506 71.5322 13.8432 71.495 14.1684C71.4672 14.4842 71.4068 14.7721 71.3139 15.0322H67.747C67.5333 15.0322 67.2175 15.0322 66.7995 15.0322C66.3815 15.0322 65.9542 15.0322 65.5177 15.0322C65.0904 15.0229 64.742 15.0136 64.4727 15.0043V11.6743C64.742 11.665 65.0904 11.6557 65.5177 11.6464C65.9542 11.6371 66.3815 11.6325 66.7995 11.6325C67.2175 11.6232 67.5333 11.6186 67.747 11.6186H71.3139ZM72.8326 5.71089C72.8976 6.02671 72.9348 6.3286 72.9441 6.61655C72.9534 6.9045 72.958 7.17852 72.958 7.43861C72.958 7.68941 72.9301 7.97272 72.8744 8.28854C72.828 8.60436 72.7444 8.92482 72.6236 9.24993H67.747C67.5333 9.24993 67.2175 9.24993 66.7995 9.24993C66.3815 9.24064 65.9542 9.23135 65.5177 9.22206C65.0904 9.21278 64.742 9.20349 64.4727 9.1942V5.71089H72.8326ZM73.3481 17.5681C73.3481 18.8964 73.1391 19.8206 72.7211 20.3408C72.3124 20.861 71.6158 21.121 70.6312 21.121H64.5284V17.7353C65.0672 17.7167 65.5037 17.6935 65.8381 17.6656C66.1818 17.6377 66.5023 17.6145 66.7995 17.5959C67.106 17.5774 67.473 17.5681 67.9002 17.5681H73.3481ZM76.3806 5.80842C76.7243 5.72482 77.1516 5.6598 77.6624 5.61336C78.1733 5.56691 78.5681 5.54369 78.8468 5.54369C79.1347 5.54369 79.5434 5.55298 80.0729 5.57156C80.6023 5.58084 81.0389 5.62729 81.3826 5.71089L80.3794 10.5178L80.1844 10.6014C80.2215 11.3353 80.2587 12.1295 80.2958 12.984C80.333 13.8293 80.3608 14.6049 80.3794 15.3109C80.4073 16.0075 80.4212 16.5138 80.4212 16.8296V21.0653C80.059 21.1303 79.7106 21.1721 79.3762 21.1907C79.0418 21.2186 78.7306 21.2325 78.4426 21.2325C78.1825 21.2325 77.8575 21.2186 77.4674 21.1907C77.0865 21.1721 76.7243 21.1303 76.3806 21.0653V5.80842ZM81.7867 14.0569C81.7217 13.9083 81.6195 13.676 81.4801 13.3602C81.3408 13.0351 81.1922 12.6868 81.0343 12.3152C80.8764 11.9344 80.7277 11.5814 80.5884 11.2563C80.4491 10.9219 80.3423 10.6758 80.268 10.5178L79.0836 9.22206L81.3826 5.71089L84.6569 12.6914C84.7219 12.8215 84.8288 13.0583 84.9774 13.402C85.1353 13.7457 85.3025 14.1219 85.479 14.5306C85.6555 14.9393 85.8227 15.3248 85.9806 15.6871C86.1385 16.0493 86.2545 16.3187 86.3288 16.4952L87.7222 17.9443L85.1307 21.0653L81.7867 14.0569ZM90.2163 5.71089V20.9817C89.854 21.0653 89.4174 21.1257 88.9066 21.1628C88.3957 21.2093 88.0055 21.2325 87.7362 21.2325C87.5504 21.2325 87.2949 21.2279 86.9698 21.2186C86.6447 21.2093 86.3103 21.1954 85.9666 21.1768C85.6322 21.1582 85.3536 21.121 85.1307 21.0653L86.2453 16.4952L86.4404 16.4395C86.4032 15.8264 86.3521 15.1112 86.2871 14.2938C86.2314 13.4763 86.1803 12.6868 86.1338 11.9251C86.0874 11.1634 86.0642 10.555 86.0642 10.0998V7.92627C86.0642 6.94166 86.2778 6.29608 86.7051 5.98955C87.1324 5.67373 87.7687 5.51582 88.614 5.51582H90.0491L90.2163 5.71089ZM92.4212 9.2778C92.3469 8.9434 92.3005 8.63222 92.2819 8.34427C92.2633 8.04703 92.254 7.77765 92.254 7.53614C92.254 7.29463 92.2633 7.01132 92.2819 6.68622C92.3005 6.35182 92.3469 6.02671 92.4212 5.71089H105.031C105.096 5.96169 105.142 6.245 105.17 6.56082C105.207 6.87664 105.226 7.13208 105.226 7.32714C105.226 7.95878 105.059 8.4418 104.724 8.7762C104.39 9.1106 103.832 9.2778 103.052 9.2778H102.481C102.286 9.2778 102.026 9.27315 101.701 9.26386C101.385 9.25458 101.139 9.24993 100.962 9.24993H96.6012C96.4061 9.24993 96.1367 9.25458 95.7931 9.26386C95.4587 9.27315 95.1939 9.2778 94.9989 9.2778H92.4212ZM96.5732 10.9358C96.5732 10.6386 96.5779 10.3646 96.5872 10.1138C96.5964 9.85371 96.6012 9.56575 96.6012 9.24993V7.52221H100.962V9.24993C100.962 9.56575 100.967 9.85371 100.976 10.1138C100.985 10.3646 100.99 10.6386 100.99 10.9358V21.0653C100.73 21.121 100.372 21.1628 99.9173 21.1907C99.4621 21.2186 99.0812 21.2325 98.7747 21.2325C98.4867 21.2325 98.1246 21.2186 97.688 21.1907C97.2514 21.1628 96.8798 21.121 96.5732 21.0653V10.9358ZM124.721 2.06038C125.195 1.97678 125.71 1.92105 126.268 1.89318C126.834 1.86531 127.322 1.85138 127.731 1.85138C128.139 1.85138 128.594 1.86531 129.096 1.89318C129.598 1.92105 130.085 1.97678 130.559 2.06038L132.203 8.87373C132.24 9.04093 132.301 9.32889 132.384 9.73759C132.477 10.1463 132.579 10.6107 132.691 11.1309C132.802 11.6511 132.904 12.162 132.997 12.6636C133.099 13.1652 133.178 13.5924 133.234 13.9454H133.429C133.485 13.5924 133.564 13.1652 133.666 12.6636C133.768 12.162 133.87 11.6511 133.973 11.1309C134.084 10.6107 134.186 10.1463 134.279 9.73759C134.372 9.32889 134.437 9.04093 134.474 8.87373L136.118 2.06038C136.592 1.97678 137.075 1.92105 137.567 1.89318C138.069 1.86531 138.524 1.85138 138.933 1.85138C139.342 1.85138 139.829 1.86531 140.396 1.89318C140.962 1.92105 141.478 1.97678 141.942 2.06038L143.419 21.0096C143.104 21.0932 142.737 21.1489 142.319 21.1768C141.91 21.2139 141.524 21.2325 141.162 21.2325C140.828 21.2325 140.498 21.2232 140.173 21.2046C139.857 21.1861 139.537 21.1489 139.212 21.0932L138.794 13.3324C138.756 12.6729 138.719 11.9623 138.682 11.2006C138.654 10.4389 138.626 9.68651 138.598 8.9434C138.58 8.20029 138.571 7.52685 138.571 6.92308H138.376L135.631 18.2647C135.296 18.3205 134.906 18.3623 134.46 18.3901C134.014 18.4087 133.634 18.418 133.318 18.418C133.039 18.418 132.672 18.4087 132.217 18.3901C131.762 18.3623 131.367 18.3205 131.033 18.2647L128.288 6.92308H128.107C128.107 7.52685 128.093 8.20029 128.065 8.9434C128.046 9.68651 128.019 10.4389 127.981 11.2006C127.953 11.9623 127.921 12.6729 127.884 13.3324L127.452 21.0932C127.136 21.1489 126.816 21.1861 126.49 21.2046C126.165 21.2232 125.836 21.2325 125.501 21.2325C125.148 21.2325 124.763 21.2139 124.345 21.1768C123.936 21.1489 123.569 21.0932 123.244 21.0096L124.721 2.06038ZM150.317 13.416C150.317 13.9454 150.349 14.4935 150.414 15.0601C150.488 15.6174 150.628 16.1376 150.832 16.6206C151.046 17.1036 151.357 17.4984 151.766 17.8049C152.174 18.1022 152.718 18.2508 153.396 18.2508C154.074 18.2508 154.617 18.1022 155.026 17.8049C155.435 17.4984 155.741 17.1036 155.946 16.6206C156.159 16.1376 156.299 15.6174 156.364 15.0601C156.438 14.4935 156.475 13.9454 156.475 13.416C156.475 12.8772 156.438 12.3245 156.364 11.7579C156.299 11.182 156.159 10.6525 155.946 10.1695C155.741 9.67722 155.435 9.28244 155.026 8.9852C154.617 8.67867 154.074 8.5254 153.396 8.5254C152.718 8.5254 152.174 8.67867 151.766 8.9852C151.357 9.28244 151.046 9.67722 150.832 10.1695C150.628 10.6525 150.488 11.182 150.414 11.7579C150.349 12.3245 150.317 12.8772 150.317 13.416ZM145.816 13.416C145.816 11.7533 146.099 10.3181 146.666 9.1106C147.242 7.89376 148.092 6.95559 149.216 6.29608C150.34 5.62729 151.728 5.29289 153.382 5.29289C155.054 5.29289 156.452 5.62264 157.576 6.28215C158.7 6.94166 159.545 7.87983 160.112 9.09667C160.688 10.3042 160.975 11.744 160.975 13.416C160.975 15.0879 160.688 16.5277 160.112 17.7353C159.545 18.9335 158.695 19.8578 157.562 20.508C156.438 21.1582 155.045 21.4833 153.382 21.4833C151.71 21.4833 150.312 21.1582 149.188 20.508C148.064 19.8485 147.219 18.9149 146.652 17.7074C146.095 16.4998 145.816 15.0694 145.816 13.416ZM172.532 5.71089C172.867 5.63658 173.159 5.59013 173.41 5.57156C173.67 5.55298 173.935 5.54369 174.204 5.54369C174.539 5.54369 174.887 5.56227 175.249 5.59942C175.621 5.63658 176.016 5.71553 176.434 5.83629L176.629 6.04529L172.059 21.0653C171.641 21.1303 171.093 21.1721 170.415 21.1907C169.737 21.2186 169.119 21.2325 168.561 21.2325C167.828 21.2325 167.205 21.1164 166.694 20.8842C166.193 20.6427 165.831 20.1225 165.608 19.3237L161.637 6.01742C162.017 5.85951 162.417 5.73876 162.835 5.65516C163.262 5.56227 163.699 5.51582 164.145 5.51582C164.813 5.51582 165.334 5.67373 165.705 5.98955C166.086 6.29608 166.388 6.83019 166.611 7.59188L168.102 12.58C168.315 13.3324 168.506 14.0987 168.673 14.8789C168.849 15.6592 169.021 16.5416 169.188 17.5263C169.226 17.6842 169.319 17.7631 169.467 17.7631L172.532 5.71089ZM178.786 5.71089C179.139 5.63658 179.538 5.59013 179.984 5.57156C180.43 5.55298 180.783 5.54369 181.043 5.54369C181.321 5.54369 181.656 5.55298 182.046 5.57156C182.445 5.59013 182.831 5.63658 183.202 5.71089V21.0653C182.831 21.1303 182.445 21.1721 182.046 21.1907C181.656 21.2186 181.321 21.2325 181.043 21.2325C180.783 21.2325 180.43 21.2186 179.984 21.1907C179.538 21.1721 179.139 21.1303 178.786 21.0653V5.71089ZM187.248 5.86415L187.401 5.71089H191.567V9.22206C191.567 9.51931 191.572 9.77011 191.581 9.97446C191.59 10.1788 191.595 10.425 191.595 10.7129V15.9379C191.595 16.2816 191.59 16.5649 191.581 16.7878C191.572 17.0107 191.567 17.2894 191.567 17.6238V21.121H189.797C189.008 21.121 188.386 20.8981 187.93 20.4522C187.475 19.9971 187.248 19.3887 187.248 18.627V5.86415ZM196.903 11.6186C196.996 11.8694 197.057 12.1573 197.085 12.4824C197.122 12.7983 197.14 13.0676 197.14 13.2906C197.14 13.5506 197.122 13.8432 197.085 14.1684C197.057 14.4842 196.996 14.7721 196.903 15.0322H193.337C193.123 15.0322 192.807 15.0322 192.389 15.0322C191.971 15.0322 191.544 15.0322 191.107 15.0322C190.68 15.0229 190.332 15.0136 190.062 15.0043V11.6743C190.332 11.665 190.68 11.6557 191.107 11.6464C191.544 11.6371 191.971 11.6325 192.389 11.6325C192.807 11.6232 193.123 11.6186 193.337 11.6186H196.903ZM198.422 5.71089C198.487 6.02671 198.524 6.3286 198.534 6.61655C198.543 6.9045 198.548 7.17852 198.548 7.43861C198.548 7.68941 198.52 7.97272 198.464 8.28854C198.418 8.60436 198.334 8.92482 198.213 9.24993H193.337C193.123 9.24993 192.807 9.24993 192.389 9.24993C191.971 9.24064 191.544 9.23135 191.107 9.22206C190.68 9.21278 190.332 9.20349 190.062 9.1942V5.71089H198.422ZM198.938 17.5681C198.938 18.8964 198.729 19.8206 198.311 20.3408C197.902 20.861 197.205 21.121 196.221 21.121H190.118V17.7353C190.657 17.7167 191.093 17.6935 191.428 17.6656C191.771 17.6377 192.092 17.6145 192.389 17.5959C192.696 17.5774 193.062 17.5681 193.49 17.5681H198.938Z" fill="#4880FF"/>
<path d="M110.35 2.03249C110.703 1.97676 111.126 1.93496 111.618 1.90709C112.12 1.87923 112.556 1.8653 112.928 1.8653C113.281 1.8653 113.708 1.88387 114.21 1.92103C114.711 1.94889 115.143 1.99534 115.506 2.06036L121.497 20.7727C121.19 20.9492 120.791 21.0839 120.299 21.1768C119.816 21.2697 119.365 21.3161 118.947 21.3161C118.241 21.3161 117.689 21.1536 117.289 20.8284C116.89 20.494 116.555 19.8485 116.286 18.8917L114.293 11.8276C114.08 11.0473 113.829 10.1277 113.541 9.06878C113.253 8.00985 112.993 7.02059 112.761 6.101H112.594C112.501 6.62117 112.375 7.19708 112.217 7.82872C112.06 8.46036 111.892 9.092 111.716 9.72364C111.549 10.346 111.391 10.908 111.242 11.4096L108.4 21.0932C108.121 21.1582 107.819 21.2 107.494 21.2186C107.178 21.2464 106.848 21.2604 106.505 21.2604C106.17 21.2604 105.79 21.2325 105.362 21.1768C104.944 21.121 104.61 21.0467 104.359 20.9538L104.192 20.717L110.35 2.03249ZM110.685 17.0804C110.555 17.0804 110.401 17.0804 110.225 17.0804C110.058 17.0711 109.886 17.0665 109.709 17.0665C109.542 17.0572 109.394 17.0525 109.264 17.0525H106.923L108.274 13.5832H110.336C110.466 13.5832 110.615 13.5832 110.782 13.5832C110.949 13.5739 111.117 13.5692 111.284 13.5692C111.451 13.5599 111.6 13.5553 111.73 13.5553H113.764C113.894 13.5553 114.043 13.5599 114.21 13.5692C114.377 13.5692 114.544 13.5739 114.711 13.5832C114.888 13.5832 115.041 13.5832 115.171 13.5832H117.303L118.432 17.0525H116.077C115.947 17.0525 115.794 17.0572 115.617 17.0665C115.45 17.0665 115.278 17.0711 115.102 17.0804C114.934 17.0804 114.786 17.0804 114.656 17.0804H110.685Z" fill="black"/>
</svg>
