<svg width="999" height="197" viewBox="0 0 999 197" fill="none" xmlns="http://www.w3.org/2000/svg">
<path fill-rule="evenodd" clip-rule="evenodd" d="M1 195L7.31685 173.386L29.4628 172.457L44.9428 164.351L61.1264 163.905L72.9199 151.984L83.2926 120.994L89.942 109.906L107.701 133.034L122.144 136.554L132.712 129.839L145.463 100.241L182.024 160.254L197.076 134.406L214.334 147.38L223.636 127.599L225.45 118.109L239.459 108.417L246.694 95.2465L254.69 113.644L253.367 125.724L260.743 127.511L266.467 122.133L281.404 0.643402L295.309 148.636L307.692 132.723V123.635L318.276 114.244L323.232 107.046L332.352 96.2196L354.034 107.508L364.827 113.644L373.54 109.672L388.737 127.524L410.843 92.4378L417.31 111.571L431.171 124.807L444.607 120.568L450.883 111.568L460.929 107.503L462.195 99.776L473.658 80.7772L490.488 86.173L495.62 69.2863L518.698 180.061L535.151 157.909L556.832 156.36L582.813 172.082L592.906 110.754L605.568 114.206L611.527 106.998L614.884 109.3L621.183 108.598L624.782 111.699L634.781 113.722L634.959 120.584L646.911 124.934L661.845 123.971L662.63 112.485L651.376 37.3121L677.602 68.1315L690.725 78.4867L723.56 57.3108L742.089 72.3683H748.018H754.705L762.84 81.8119L772.721 92.4378L825.501 96.2196L833.984 80.7772L869.556 124.801L890.032 86.173L911.07 99.7299L930.93 82.6815L952.901 96.2196L969.504 105.053L978.825 102.353L989.119 95.2465L999 86.173V195H83.6059H1Z" fill="url(#paint0_linear_5_10417)"/>
<path d="M1 196L7.38304 173.573L29.5254 172.643L45.0028 164.525L61.1838 164.079L72.9753 152.142L83.3463 121.109L90.1322 110.006L107.751 133.166L122.191 136.69L132.758 129.967L145.311 99.862L182.061 160.423L197.111 134.539L214.366 147.531L223.666 127.723L225.481 118.22L239.487 108.515L246.721 95.3263L254.716 113.749L253.393 125.846L260.768 127.635L266.49 122.25L281.404 0.643402L295.328 148.789L307.708 132.854V123.754L318.292 114.35L323.246 107.142L332.365 96.3008L354.043 107.605L364.835 113.749L373.546 109.772L388.741 127.648L410.843 92.5138L417.309 111.673L431.168 124.928L444.602 120.683L450.876 111.671L460.921 107.6L462.187 99.862L473.648 80.8372L490.475 86.2404L495.702 71.1656L518.68 180.257L535.13 158.075L556.808 156.523L582.785 172.267L592.876 110.855L605.536 114.312L611.494 107.094L614.85 109.4L621.148 108.696L624.747 111.801L634.744 113.827L634.922 120.699L646.872 125.055L661.804 124.091L662.589 112.588L651.376 37.3121L677.558 68.1742L690.679 78.5436L723.509 57.3387L741.766 72.4167H754.376L772.64 92.5138L797.418 96.3008H825.141L833.621 80.8372L853.047 105.026L869.178 125.846L890.128 86.2404C890.128 86.2404 909.302 100.894 911.504 99.862C913.706 98.8302 932.03 82.6493 932.03 82.6493L949.802 95.3263L971.045 107.142L988.688 96.3008L997 86.2404H994.614H995.894" stroke="#4379EE" stroke-width="1.5"/>
<defs>
<linearGradient id="paint0_linear_5_10417" x1="250.5" y1="97.8217" x2="250.5" y2="195" gradientUnits="userSpaceOnUse">
<stop stop-color="#4379EE" stop-opacity="0.16"/>
<stop offset="1" stop-color="white" stop-opacity="0.176942"/>
</linearGradient>
</defs>
</svg>
