<svg width="24" height="24" viewBox="0 0 24 24" fill="none" xmlns="http://www.w3.org/2000/svg">
<path d="M17.8877 10.8967C19.2827 10.7007 20.3567 9.50467 20.3597 8.05567C20.3597 6.62767 19.3187 5.44367 17.9537 5.21967" stroke="black" stroke-width="1.5" stroke-linecap="round" stroke-linejoin="round"/>
<path d="M19.7285 14.2503C21.0795 14.4523 22.0225 14.9253 22.0225 15.9003C22.0225 16.5713 21.5785 17.0073 20.8605 17.2813" stroke="black" stroke-width="1.5" stroke-linecap="round" stroke-linejoin="round"/>
<path fill-rule="evenodd" clip-rule="evenodd" d="M11.8867 14.6638C8.6727 14.6638 5.9277 15.1508 5.9277 17.0958C5.9277 19.0398 8.6557 19.5408 11.8867 19.5408C15.1007 19.5408 17.8447 19.0588 17.8447 17.1128C17.8447 15.1668 15.1177 14.6638 11.8867 14.6638Z" stroke="black" stroke-width="1.5" stroke-linecap="round" stroke-linejoin="round"/>
<path fill-rule="evenodd" clip-rule="evenodd" d="M11.8867 11.8879C13.9957 11.8879 15.7057 10.1789 15.7057 8.06888C15.7057 5.95988 13.9957 4.24988 11.8867 4.24988C9.77769 4.24988 8.06769 5.95988 8.06769 8.06888C8.05969 10.1709 9.75669 11.8809 11.8587 11.8879H11.8867Z" stroke="black" stroke-width="1.5" stroke-linecap="round" stroke-linejoin="round"/>
<path d="M5.88481 10.8967C4.48881 10.7007 3.41581 9.50467 3.41281 8.05567C3.41281 6.62767 4.45381 5.44367 5.81881 5.21967" stroke="black" stroke-width="1.5" stroke-linecap="round" stroke-linejoin="round"/>
<path d="M4.04388 14.2503C2.69288 14.4523 1.74988 14.9253 1.74988 15.9003C1.74988 16.5713 2.19388 17.0073 2.91188 17.2813" stroke="black" stroke-width="1.5" stroke-linecap="round" stroke-linejoin="round"/>
</svg>
