<svg width="50" height="35" viewBox="0 0 50 35" fill="none" xmlns="http://www.w3.org/2000/svg">
<path d="M48.7094 19.0336C40.3451 19.0336 33.5645 25.8142 33.5645 34.1786" stroke="#4880FF" stroke-width="2.45594"/>
<path d="M49.1188 25.9921C44.5976 25.9921 40.9324 29.6573 40.9324 34.1786" stroke="#4880FF" stroke-width="2.45594"/>
<path d="M46.2537 31.3133H49.1189V34.1786H46.2537V31.3133Z" fill="#4880FF"/>
<path d="M29.5736 16.6051C29.7101 16.6838 29.7101 16.8808 29.5736 16.9596L21.2848 21.7451C21.1484 21.8239 20.9778 21.7254 20.9778 21.5679L20.9778 11.9968C20.9778 11.8392 21.1484 11.7408 21.2848 11.8195L29.5736 16.6051Z" stroke="#4880FF" stroke-width="2.04662"/>
<path d="M6.9585 3.06998H42.1603C44.4209 3.06998 46.2535 4.90258 46.2535 7.16321V12.0751C46.2535 12.3012 46.4368 12.4844 46.6629 12.4844H48.7095C48.9355 12.4844 49.1188 12.3012 49.1188 12.0751V7.16321C49.1188 3.32014 46.0034 0.204712 42.1603 0.204712H6.9585C3.11543 0.204712 0 3.32014 0 7.16321V26.8107C0 30.6538 3.11542 33.7692 6.9585 33.7692H26.606C26.8321 33.7692 27.0153 33.586 27.0153 33.3599V31.3133C27.0153 31.0872 26.8321 30.904 26.606 30.904H6.9585C4.69787 30.904 2.86526 29.0714 2.86526 26.8107V7.16321C2.86526 4.90258 4.69787 3.06998 6.9585 3.06998Z" fill="#4880FF"/>
</svg>
