<svg width="938" height="205" viewBox="0 0 938 205" fill="none" xmlns="http://www.w3.org/2000/svg">
<path fill-rule="evenodd" clip-rule="evenodd" d="M283 8C285.209 8 287 6.20914 287 4C287 1.79086 285.209 0 283 0C280.791 0 279 1.79086 279 4C279 6.20914 280.791 8 283 8Z" fill="#4880FF"/>
<path fill-rule="evenodd" clip-rule="evenodd" d="M249 107C251.209 107 253 105.209 253 103C253 100.791 251.209 99 249 99C246.791 99 245 100.791 245 103C245 105.209 246.791 107 249 107Z" fill="#4379EE"/>
<path fill-rule="evenodd" clip-rule="evenodd" d="M184 171C186.209 171 188 169.209 188 167C188 164.791 186.209 163 184 163C181.791 163 180 164.791 180 167C180 169.209 181.791 171 184 171Z" fill="#4379EE"/>
<path fill-rule="evenodd" clip-rule="evenodd" d="M148 111C150.209 111 152 109.209 152 107C152 104.791 150.209 103 148 103C145.791 103 144 104.791 144 107C144 109.209 145.791 111 148 111Z" fill="#4379EE"/>
<path fill-rule="evenodd" clip-rule="evenodd" d="M92 120C94.2091 120 96 118.209 96 116C96 113.791 94.2091 112 92 112C89.7909 112 88 113.791 88 116C88 118.209 89.7909 120 92 120Z" fill="#4379EE"/>
<path fill-rule="evenodd" clip-rule="evenodd" d="M62 175C64.2091 175 66 173.209 66 171C66 168.791 64.2091 167 62 167C59.7909 167 58 168.791 58 171C58 173.209 59.7909 175 62 175Z" fill="#4379EE"/>
<path fill-rule="evenodd" clip-rule="evenodd" d="M4 205C6.20914 205 8 203.209 8 201C8 198.791 6.20914 197 4 197C1.79086 197 0 198.791 0 201C0 203.209 1.79086 205 4 205Z" fill="#4379EE"/>
<path fill-rule="evenodd" clip-rule="evenodd" d="M334 108C336.209 108 338 106.209 338 104C338 101.791 336.209 100 334 100C331.791 100 330 101.791 330 104C330 106.209 331.791 108 334 108Z" fill="#4379EE"/>
<path fill-rule="evenodd" clip-rule="evenodd" d="M413 102C415.209 102 417 100.209 417 98C417 95.7909 415.209 94 413 94C410.791 94 409 95.7909 409 98C409 100.209 410.791 102 413 102Z" fill="#4379EE"/>
<path fill-rule="evenodd" clip-rule="evenodd" d="M498 81C500.209 81 502 79.2091 502 77C502 74.7909 500.209 73 498 73C495.791 73 494 74.7909 494 77C494 79.2091 495.791 81 498 81Z" fill="#4379EE"/>
<path fill-rule="evenodd" clip-rule="evenodd" d="M520 191C522.209 191 524 189.209 524 187C524 184.791 522.209 183 520 183C517.791 183 516 184.791 516 187C516 189.209 517.791 191 520 191Z" fill="#4379EE"/>
<path fill-rule="evenodd" clip-rule="evenodd" d="M585 183C587.209 183 589 181.209 589 179C589 176.791 587.209 175 585 175C582.791 175 581 176.791 581 179C581 181.209 582.791 183 585 183Z" fill="#4379EE"/>
<path fill-rule="evenodd" clip-rule="evenodd" d="M654 49C656.209 49 658 47.2091 658 45C658 42.7909 656.209 41 654 41C651.791 41 650 42.7909 650 45C650 47.2091 651.791 49 654 49Z" fill="#4379EE"/>
<path fill-rule="evenodd" clip-rule="evenodd" d="M663 134C665.209 134 667 132.209 667 130C667 127.791 665.209 126 663 126C660.791 126 659 127.791 659 130C659 132.209 660.791 134 663 134Z" fill="#4379EE"/>
<path fill-rule="evenodd" clip-rule="evenodd" d="M692 89C694.209 89 696 87.2091 696 85C696 82.7909 694.209 81 692 81C689.791 81 688 82.7909 688 85C688 87.2091 689.791 89 692 89Z" fill="#4379EE"/>
<path fill-rule="evenodd" clip-rule="evenodd" d="M724 69C726.209 69 728 67.2091 728 65C728 62.7909 726.209 61 724 61C721.791 61 720 62.7909 720 65C720 67.2091 721.791 69 724 69Z" fill="#4379EE"/>
<path fill-rule="evenodd" clip-rule="evenodd" d="M836 92C838.209 92 840 90.2091 840 88C840 85.7909 838.209 84 836 84C833.791 84 832 85.7909 832 88C832 90.2091 833.791 92 836 92Z" fill="#4379EE"/>
<path fill-rule="evenodd" clip-rule="evenodd" d="M871 138C873.209 138 875 136.209 875 134C875 131.791 873.209 130 871 130C868.791 130 867 131.791 867 134C867 136.209 868.791 138 871 138Z" fill="#4379EE"/>
<path fill-rule="evenodd" clip-rule="evenodd" d="M892 97C894.209 97 896 95.2091 896 93C896 90.7909 894.209 89 892 89C889.791 89 888 90.7909 888 93C888 95.2091 889.791 97 892 97Z" fill="#4379EE"/>
<path fill-rule="evenodd" clip-rule="evenodd" d="M934 95C936.209 95 938 93.2091 938 91C938 88.7909 936.209 87 934 87C931.791 87 930 88.7909 930 91C930 93.2091 931.791 95 934 95Z" fill="#4379EE"/>
</svg>
