<svg width="24" height="24" viewBox="0 0 24 24" fill="none" xmlns="http://www.w3.org/2000/svg">
<path d="M1.44849 15.7849V16.2826V22.5299H5.7195V15.7849H1.44849ZM2.45125 16.7877H4.71674V21.5345H2.45125V16.7877Z" fill="white"/>
<path d="M7.10107 14.017V14.5147V22.5299H11.3647V14.017H7.10107ZM8.09641 15.0198H10.3619V21.5345H8.09641V15.0198Z" fill="white"/>
<path d="M12.6497 11.8032V12.3084V22.5298H16.9207V11.8032H12.6497ZM13.6524 12.8061H15.9179V21.5344H13.6524V12.8061Z" fill="white"/>
<path d="M18.2502 10.0353V10.5404V22.5298H22.5213V10.0353H18.2502ZM19.253 11.0381H21.5185V21.5344H19.253V11.0381Z" fill="white"/>
<path d="M20.5906 1.47021C19.5146 1.47021 18.6296 2.35511 18.6296 3.43115C18.6296 3.62223 18.6656 3.80484 18.7175 3.97998L18.5554 4.07764L16.0359 5.58545L15.9148 5.65771C15.5566 5.28169 15.0541 5.04443 14.4988 5.04443C13.6903 5.04443 12.9943 5.54261 12.698 6.24756L9.90894 5.76318L9.73511 5.73193C9.5787 4.80925 8.77297 4.09912 7.80737 4.09912C6.73139 4.09912 5.84644 4.97816 5.84644 6.0542C5.84644 6.52574 6.02199 6.95466 6.30347 7.29443L4.11206 10.0894C3.91364 10.021 3.70357 9.97607 3.48315 9.97607C2.40717 9.97607 1.52222 10.8609 1.52222 11.937C1.52222 13.0131 2.40717 13.8901 3.48315 13.8901C4.55914 13.8901 5.44409 13.0131 5.44409 11.937C5.44409 11.4425 5.25251 10.9925 4.94604 10.646L7.11597 7.88037C7.33171 7.96285 7.56407 8.01514 7.80737 8.01514C8.64588 8.01514 9.36133 7.47454 9.6394 6.72803L9.7312 6.74365L12.53 7.23584L12.5691 7.2417C12.6877 8.20658 13.5038 8.96631 14.4988 8.96631C15.5748 8.96631 16.4597 8.08145 16.4597 7.00537C16.4597 6.84366 16.4348 6.68735 16.3972 6.53662L16.5496 6.44678L19.0671 4.93896L19.2332 4.83936C19.5866 5.18032 20.0654 5.39209 20.5906 5.39209C21.6666 5.39209 22.5515 4.50723 22.5515 3.43115C22.5515 2.35511 21.6666 1.47021 20.5906 1.47021ZM20.5906 2.47412C21.1261 2.47412 21.5476 2.89557 21.5476 3.43115C21.5476 3.96678 21.1261 4.39014 20.5906 4.39014C20.055 4.39014 19.6316 3.96678 19.6316 3.43115C19.6316 2.89557 20.055 2.47412 20.5906 2.47412ZM7.80737 5.09521C8.34294 5.09521 8.7644 5.51861 8.7644 6.0542C8.7644 6.58982 8.34294 7.01123 7.80737 7.01123C7.27181 7.01123 6.84839 6.58982 6.84839 6.0542C6.84839 5.51861 7.27181 5.09521 7.80737 5.09521ZM14.4988 6.04639C15.0343 6.04639 15.4578 6.46979 15.4578 7.00537C15.4578 7.54099 15.0343 7.9624 14.4988 7.9624C13.9632 7.9624 13.5417 7.54099 13.5417 7.00537C13.5417 6.46979 13.9632 6.04639 14.4988 6.04639ZM3.48315 10.978C4.01872 10.978 4.44214 11.4014 4.44214 11.937C4.44214 12.4726 4.01872 12.896 3.48315 12.896C2.94759 12.896 2.52612 12.4726 2.52612 11.937C2.52612 11.4014 2.94759 10.978 3.48315 10.978Z" fill="white"/>
</svg>
