<svg width="24" height="24" viewBox="0 0 24 24" fill="none" xmlns="http://www.w3.org/2000/svg">
<path d="M5.57779 10C4.55048 10 3.70996 10.9 3.70996 12C3.70996 13.1 4.55048 14 5.57779 14C6.60509 14 7.44561 13.1 7.44561 12C7.44561 10.9 6.60509 10 5.57779 10Z" stroke="#5A7287" stroke-width="1.5"/>
<path d="M18.6525 10C17.6252 10 16.7847 10.9 16.7847 12C16.7847 13.1 17.6252 14 18.6525 14C19.6798 14 20.5203 13.1 20.5203 12C20.5203 10.9 19.6798 10 18.6525 10Z" stroke="#5A7287" stroke-width="1.5"/>
<path d="M12.1151 10C11.0878 10 10.2473 10.9 10.2473 12C10.2473 13.1 11.0878 14 12.1151 14C13.1424 14 13.983 13.1 13.983 12C13.983 10.9 13.1424 10 12.1151 10Z" stroke="#5A7287" stroke-width="1.5"/>
</svg>
