<svg width="21" height="24" viewBox="0 0 21 24" fill="none" xmlns="http://www.w3.org/2000/svg">
<path d="M4.95994 10C4.06842 10 3.33899 10.9 3.33899 12C3.33899 13.1 4.06842 14 4.95994 14C5.85146 14 6.58089 13.1 6.58089 12C6.58089 10.9 5.85146 10 4.95994 10Z" stroke="#5A7287" stroke-width="1.5"/>
<path d="M16.3066 10C15.4151 10 14.6857 10.9 14.6857 12C14.6857 13.1 15.4151 14 16.3066 14C17.1981 14 17.9276 13.1 17.9276 12C17.9276 10.9 17.1981 10 16.3066 10Z" stroke="#5A7287" stroke-width="1.5"/>
<path d="M10.6333 10C9.74176 10 9.01233 10.9 9.01233 12C9.01233 13.1 9.74176 14 10.6333 14C11.5248 14 12.2542 13.1 12.2542 12C12.2542 10.9 11.5248 10 10.6333 10Z" stroke="#5A7287" stroke-width="1.5"/>
</svg>
